<mxfile host="app.diagrams.net" agent="Mozilla/5.0 (Windows NT 10.0; Win64; x64) AppleWebKit/537.36 (KHTML, like Gecko) Chrome/136.0.0.0 Safari/537.36 Edg/136.0.0.0" version="26.3.0">
  <diagram name="Page-1" id="099fd60b-425b-db50-ffb0-6b813814b670">
    <mxGraphModel dx="513" dy="984" grid="1" gridSize="10" guides="1" tooltips="1" connect="1" arrows="1" fold="1" page="1" pageScale="1" pageWidth="850" pageHeight="1100" background="none" math="0" shadow="0">
      <root>
        <mxCell id="0" />
        <mxCell id="1" parent="0" />
        <mxCell id="DH8hbM5EvVcrCHiDLt3n-2" value="" style="rounded=0;whiteSpace=wrap;html=1;" vertex="1" parent="1">
          <mxGeometry x="200" y="150" width="150" height="320" as="geometry" />
        </mxCell>
        <mxCell id="DH8hbM5EvVcrCHiDLt3n-9" value="" style="rounded=0;whiteSpace=wrap;html=1;" vertex="1" parent="1">
          <mxGeometry x="590" y="150" width="150" height="320" as="geometry" />
        </mxCell>
        <mxCell id="DH8hbM5EvVcrCHiDLt3n-10" value="" style="edgeStyle=orthogonalEdgeStyle;rounded=0;orthogonalLoop=1;jettySize=auto;html=1;" edge="1" parent="1" source="DH8hbM5EvVcrCHiDLt3n-2" target="DH8hbM5EvVcrCHiDLt3n-8">
          <mxGeometry relative="1" as="geometry">
            <mxPoint x="449.9999999999999" y="310" as="targetPoint" />
            <mxPoint x="350" y="310" as="sourcePoint" />
          </mxGeometry>
        </mxCell>
        <mxCell id="DH8hbM5EvVcrCHiDLt3n-8" value="" style="rounded=0;whiteSpace=wrap;html=1;" vertex="1" parent="1">
          <mxGeometry x="400" y="150" width="150" height="320" as="geometry" />
        </mxCell>
        <mxCell id="DH8hbM5EvVcrCHiDLt3n-11" value="" style="rounded=0;whiteSpace=wrap;html=1;" vertex="1" parent="1">
          <mxGeometry x="790" y="150" width="150" height="320" as="geometry" />
        </mxCell>
        <mxCell id="DH8hbM5EvVcrCHiDLt3n-12" value="&lt;span style=&quot;color: rgb(0, 51, 102); font-family: Arial, sans-serif; font-weight: 700; background-color: rgb(230, 247, 255);&quot;&gt;Onboarding Room&lt;/span&gt;" style="text;html=1;align=center;verticalAlign=middle;whiteSpace=wrap;rounded=0;" vertex="1" parent="1">
          <mxGeometry x="210" y="120" width="130" height="30" as="geometry" />
        </mxCell>
        <mxCell id="DH8hbM5EvVcrCHiDLt3n-13" value="&lt;span style=&quot;color: rgb(0, 51, 102); font-family: Arial, sans-serif; font-weight: 700; background-color: rgb(230, 247, 255);&quot;&gt;Task-Learning Room&lt;/span&gt;" style="text;html=1;align=center;verticalAlign=middle;whiteSpace=wrap;rounded=0;" vertex="1" parent="1">
          <mxGeometry x="410" y="120" width="130" height="30" as="geometry" />
        </mxCell>
        <mxCell id="DH8hbM5EvVcrCHiDLt3n-14" value="&lt;span style=&quot;color: rgb(0, 51, 102); font-family: Arial, sans-serif; font-weight: 700; background-color: rgb(230, 247, 255);&quot;&gt;Preparing Room&lt;/span&gt;" style="text;html=1;align=center;verticalAlign=middle;whiteSpace=wrap;rounded=0;" vertex="1" parent="1">
          <mxGeometry x="600" y="120" width="130" height="30" as="geometry" />
        </mxCell>
        <mxCell id="DH8hbM5EvVcrCHiDLt3n-15" value="&lt;span style=&quot;color: rgb(0, 51, 102); font-family: Arial, sans-serif; font-weight: 700; background-color: rgb(230, 247, 255);&quot;&gt;Decision-Making Room&lt;/span&gt;" style="text;html=1;align=center;verticalAlign=middle;whiteSpace=wrap;rounded=0;" vertex="1" parent="1">
          <mxGeometry x="800" y="120" width="140" height="30" as="geometry" />
        </mxCell>
      </root>
    </mxGraphModel>
  </diagram>
</mxfile>
